<?xml version="1.0" encoding="utf-8"?>
<!-- Generator: Adobe Illustrator 21.0.2, SVG Export Plug-In . SVG Version: 6.00 Build 0)  -->
<svg version="1.1" id="Layer_1" xmlns="http://www.w3.org/2000/svg" xmlns:xlink="http://www.w3.org/1999/xlink" x="0px" y="0px"
	 viewBox="0 0 500 165" style="enable-background:new 0 0 500 165;" xml:space="preserve">
<style type="text/css">
	.st0{fill:#FFFFFF;}
	.st1{fill:none;}
</style>
<title>SVG</title>
<desc>Created with Sketch.</desc>
<g id="Symbols">
	<g id="blocks-style-a" transform="translate(-119.000000, -159.000000)">
		<g id="SVG" transform="translate(70.000000, 155.000000)">
			<g id="Group-2" transform="translate(49.000000, 4.000000)">
				<g id="Page-1">
					<polygon id="Fill-1" class="st0" points="54.1,3.5 54.1,12.5 147.5,12.5 167.8,30.5 167.8,56.4 141.9,80 80,80 48.5,109.2 
						48.5,161 173.4,161 173.4,152 57.5,152 57.5,112.6 83.4,89 145.2,89 176.8,59.8 176.8,27.1 150.9,3.5 					"/>
					<polygon id="Fill-2" class="st0" points="189.6,3.5 189.6,12.5 223.3,12.5 223.3,152 189.6,152 189.6,161 266.1,161 266.1,152 
						232.3,152 232.3,3.5 					"/>
				</g>
				<polygon id="X" class="st0" points="327.3,3.5 381.5,72.3 435.7,3.5 447,3.5 387.1,79.1 451.5,161.5 440.2,161.5 381.5,87 
					322.8,161.5 311.5,161.5 375.9,79.1 316,3.5 				"/>
			</g>
			<rect id="Rectangle-3" x="48.5" y="3.5" class="st1" width="500" height="165"/>
		</g>
	</g>
</g>
</svg>
