<?xml version="1.0" encoding="utf-8"?>
<!-- Generator: Adobe Illustrator 21.0.2, SVG Export Plug-In . SVG Version: 6.00 Build 0)  -->
<svg version="1.1" id="Layer_1" xmlns="http://www.w3.org/2000/svg" xmlns:xlink="http://www.w3.org/1999/xlink" x="0px" y="0px"
	 viewBox="0 0 500 165" style="enable-background:new 0 0 500 165;" xml:space="preserve">
<style type="text/css">
	.st0{fill:#FFFFFF;}
</style>
<title>Asset 11</title>
<g id="Layer_2">
	<g id="svg">
		<path class="st0" d="M114.6,109.5l31.5-29.2h61.9l25.9-23.6V30.8l-20.3-18h-93.4v-9h96.7l25.9,23.6V60l-31.5,29.2h-61.9
			l-25.9,23.6v39.4h115.9v9H114.6V109.5z"/>
		<path class="st0" d="M332.1,161.2h-76.5v-9h33.7V12.8h-33.7v-9h42.7v148.5h33.8V161.2z"/>
		<path class="st0" d="M341.5,37.5l7.9-18h-5.6V3.8h13.5v15.8l-10.1,20.2L341.5,37.5z M369.7,37.5l7.9-18H372V3.8h13.5v15.8
			l-10.1,20.2L369.7,37.5z"/>
	</g>
</g>
</svg>
