<?xml version="1.0" encoding="utf-8"?>
<!-- Generator: Adobe Illustrator 21.0.2, SVG Export Plug-In . SVG Version: 6.00 Build 0)  -->
<svg version="1.1" id="Layer_1" xmlns="http://www.w3.org/2000/svg" xmlns:xlink="http://www.w3.org/1999/xlink" x="0px" y="0px"
	 viewBox="0 0 500 165" style="enable-background:new 0 0 500 165;" xml:space="preserve">
<style type="text/css">
	.st0{fill:#FFFFFF;}
</style>
<g id="Layer_2">
	<g id="Layer_1-2">
		<path class="st0" d="M285.1,84.4l-4.1,7.5l-4-7.5h-3.7c0.7,1.3,5.6,10.5,5.6,10.5s0,5.2,0,6.1h4c0-0.8,0-6,0-6s5.1-9.2,5.8-10.5
			L285.1,84.4z"/>
		<path class="st0" d="M240.2,95.2c0,2.9-1,3.6-3.9,3.6c-2.9,0-3.9-0.7-3.9-3.6v-5c0-2.9,1-3.5,3.9-3.5c2.9,0,3.9,0.6,3.9,3.5V95.2z
			 M241.8,85.3c-1.7-0.9-3.6-1.4-5.6-1.2c-1.9-0.1-3.9,0.3-5.6,1.2c-1.4,0.9-2.1,2.5-2.1,4.8v5.2c0,2.4,0.7,4,2.1,4.8
			c1.1,0.8,2.9,1.1,5.6,1.1s4.5-0.4,5.6-1.1c1.4-0.9,2.1-2.5,2.1-4.9v-5.2C243.9,87.9,243.2,86.3,241.8,85.3"/>
		<path class="st0" d="M222.5,94.7c0,2.9-1.5,3.6-2.8,3.6h-4.6V86.8h4.6c1.3,0,2.8,0.7,2.8,3.4V94.7z M219.6,84.4h-8.3v16.6h8.9
			c4.4,0,6-1.8,6-6.6v-3.6C226.3,86.2,224.4,84.4,219.6,84.4"/>
		<polygon class="st0" points="250.4,84.4 246.6,84.4 246.6,100.9 257.3,100.9 257.3,98.2 250.4,98.2 		"/>
		<path class="st0" d="M268.4,92.2c2.9-0.3,3.6-1.7,3.6-3.8c0.1-1.3-0.5-2.6-1.6-3.3c-1-0.6-2.2-0.8-3.3-0.7h-7.7v16.6h7.8
			c1.3,0.1,2.7-0.1,3.9-0.8c1.2-0.8,1.9-2.2,1.8-3.6C272.9,94.3,272.1,92.1,268.4,92.2z M266.4,98.5h-3.3V86.8h3.6
			c1.1,0,2.1,1,2,2.1c0,0.1,0,0.1,0,0.2c0,2.1-1,2.1-3.9,2.2v1.9c2.6,0,4.6-0.2,4.6,2.5c0,1.5-1.2,2.8-2.7,2.8
			C266.7,98.6,266.5,98.6,266.4,98.5"/>
		<path class="st0" d="M211.4,23.7v53.6h77.3V23.7H211.4z M229.3,70.3h-8.8V30.6h8.8c9.2,0,16.8,9.1,16.8,19.8
			C246.1,61.4,238.4,70.3,229.3,70.3L229.3,70.3z M279.5,70.3h-8.8c-9.2,0-16.8-8.9-16.8-19.9c0-10.7,7.6-19.8,16.8-19.8h8.8V70.3z"
			/>
		<path class="st0" d="M222,120.7h-7l-1.3,4h-2.2l5.7-16.1h2.7l5.7,16.1h-2.2L222,120.7z M215.6,119h5.8l-2-6
			c-0.4-1.1-0.6-1.8-0.8-2.6l0,0c-0.3,0.8-0.5,1.5-0.8,2.6L215.6,119z"/>
		<path class="st0" d="M231.4,123.4c-1-1.2-1.5-2.7-1.4-4.3v-10.6h2.2v11c-0.1,1,0.2,2,0.9,2.7c1.8,1.3,4.3,1.3,6.1,0
			c0.7-0.7,1-1.7,0.9-2.7v-11h2.2v10.6c0.1,1.6-0.4,3.1-1.4,4.3c-1,1-2.4,1.5-4.7,1.5S232.4,124.5,231.4,123.4z"/>
		<path class="st0" d="M258.9,123.1c-1.3,1.2-3,1.8-4.7,1.6h-5.7v-16.1h5.7c1.7-0.2,3.4,0.4,4.7,1.6c1.3,1.3,2,3.4,2,6.4
			S260.3,121.7,258.9,123.1z M257.3,111.2c-0.8-0.7-1.9-1.1-3-1h-3.5V123h3.5c1.1,0.1,2.2-0.3,3-1c0.9-0.9,1.4-2.7,1.4-5.4
			C258.7,113.9,258.2,112.2,257.3,111.2z"/>
		<path class="st0" d="M269,124.6h-2.2v-16.1h2.2V124.6z"/>
		<path class="st0" d="M281.8,124.9c-5.4,0-6.9-3.1-6.9-8.3s1.5-8.3,6.9-8.3s6.9,3.1,6.9,8.3S287.1,124.9,281.8,124.9z M281.8,123.1
			c3.6,0,4.6-2.1,4.6-6.5s-1-6.5-4.6-6.5s-4.6,2.1-4.6,6.5S278.2,123.1,281.8,123.1z"/>
		<path class="st0" d="M213.2,141.1h-1.8v-8.9h3.3c1-0.1,2,0.1,2.8,0.7c0.5,0.6,0.8,1.4,0.7,2.2c0,0.8-0.2,1.6-0.7,2.2
			c-0.8,0.6-1.8,0.9-2.8,0.7h-1.5V141.1z M213.2,136.8h1.4c0.7,0,1.1,0,1.4-0.3c0.5-0.8,0.5-1.8,0-2.7c-0.3-0.3-0.7-0.3-1.4-0.3
			h-1.4V136.8z"/>
		<path class="st0" d="M222.9,141.1v-8.9h3.6c0.9-0.1,1.9,0.1,2.7,0.7c0.5,0.6,0.7,1.3,0.7,2.1c0,0.8-0.2,1.5-0.7,2.1
			c-0.4,0.3-0.8,0.5-1.2,0.6l2.2,3.4h-2.1l-2.2-3.3h-1.1v3.3L222.9,141.1z M224.7,133.7v2.7h1.6c0.6,0,1,0,1.3-0.2
			c0.3-0.3,0.4-0.7,0.4-1.1c0-0.4-0.1-0.8-0.4-1.1c-0.2-0.2-0.7-0.2-1.3-0.2L224.7,133.7z"/>
		<path class="st0" d="M240.7,141.1h-5.9v-8.9h5.8v1.4h-4v2.2h3.5v1.4h-3.5v2.4h4.1V141.1z"/>
		<path class="st0" d="M249.4,139.5l-1.5-3c-0.4-0.8-0.7-1.6-0.9-2.4l0,0c0.1,1.5,0.2,2.1,0.2,3.7v3.3h-1.7v-8.9h2.4l2.2,4.9l0,0
			l2.2-4.9h2.4v8.9h-1.8v-3.3c0-1.6,0-2.2,0.2-3.7l0,0c-0.3,0.8-0.6,1.6-0.9,2.4l-1.5,3H249.4z"/>
		<path class="st0" d="M259.9,141.1v-8.9h1.8v8.9H259.9z"/>
		<path class="st0" d="M272,139.5c0.3-0.3,0.4-0.7,0.4-1.1v-6.1h1.8v5.9c0.1,0.9-0.2,1.7-0.8,2.4c-1.8,1.2-4,1.2-5.8,0
			c-0.6-0.7-0.8-1.5-0.8-2.4v-5.9h1.8v6.1c0,0.4,0.1,0.8,0.4,1.1c0.4,0.3,0.9,0.5,1.5,0.4C271.1,140,271.6,139.8,272,139.5z"/>
		<path class="st0" d="M283.3,139.5l-1.5-3c-0.4-0.8-0.7-1.6-0.9-2.4l0,0c0.1,1.5,0.2,2.1,0.2,3.7v3.3h-1.7v-8.9h2.4l2.2,4.9l0,0
			l2.2-4.9h2.4v8.9h-1.8v-3.3c0-1.6,0-2.2,0.2-3.7l0,0c-0.3,0.8-0.6,1.6-0.9,2.4l-1.5,3H283.3z"/>
	</g>
</g>
</svg>
