<?xml version="1.0" encoding="utf-8"?>
<!-- Generator: Adobe Illustrator 21.0.2, SVG Export Plug-In . SVG Version: 6.00 Build 0)  -->
<svg version="1.1" id="Layer_1" xmlns="http://www.w3.org/2000/svg" xmlns:xlink="http://www.w3.org/1999/xlink" x="0px" y="0px"
	 viewBox="0 0 500 165" style="enable-background:new 0 0 500 165;" xml:space="preserve">
<style type="text/css">
	.st0{fill:#FFFFFF;}
</style>
<g id="Layer_2">
	<g id="Layer_1-2">
		<polygon class="st0" points="301,96.2 301,81.8 301,66.8 308.7,66.8 308.7,82 308.7,96.2 		"/>
		<polygon class="st0" points="287.1,96.2 287.1,81.5 287.1,66.8 294.9,66.8 294.9,81.5 294.9,96.2 		"/>
		<path class="st0" d="M233.9,73.6c-4.3,0-7.7,3.4-7.7,7.7c0,4.3,3.4,7.7,7.7,7.7s7.7-3.4,7.7-7.7l0,0
			C241.6,77.1,238.1,73.6,233.9,73.6 M233.9,96.9c-8.6,0-15.6-7-15.6-15.6c0-8.6,7-15.6,15.6-15.6c8.6,0,15.6,7,15.6,15.6
			C249.5,89.9,242.5,96.9,233.9,96.9"/>
		<path class="st0" d="M268.1,89h-2.8c-1.2-0.1-2.3-0.2-3.1-1l-0.1-0.1l0,0c-0.7-1-0.9-2.3-0.8-3.5c0-0.1,0-1.6,0-3.7v-0.2
			c0-4.5,2.9-6.6,7-6.6c4.3,0,7.1,3.3,7.1,7.6c0.2,3.9-2.9,7.2-6.8,7.4C268.5,89,268.3,89,268.1,89 M268.2,66.4c-0.4,0-0.8,0-1.2,0
			h-0.1c-2,0.2-4,0.8-5.8,1.7V58h-7.6v15.1l0,0v13.7c0,8.8,4.7,9.9,9.9,10h4.8c8.7,0,14.9-6.6,14.9-15.2S276.9,66.3,268.2,66.4"/>
		<path class="st0" d="M211.7,96.3c-3.5,0-9.4,0.3-12.3-2c-2.2-1.9-3.4-4.7-3.3-7.6V74.9H190v-7.6h6.2v-8.6h7.8v8.6h10.6V75h-10.7
			v4.1c0,1.1,0,1.6,0,2.7c0,2.8-0.6,7.2,3.5,7.4c0.5,0,7.5,0,7.5,0v7.1L211.7,96.3z"/>
		<path class="st0" d="M309.8,52.7c-0.8-2.7-3.6-4.3-6.3-3.6c-1.6,0.5-2.9,1.6-3.8,3c-0.5,0.9-1.4,1.6-2.4,2
			c-1.1,0.1-2.2-0.1-3.1-0.7c-1.4-0.8-3.1-1.1-4.8-0.8c-2.7,0.7-4.4,3.4-3.8,6.2c0,0.1,0,0.1,0,0.2c0,0.1,0,0.1,0,0.2
			c0.8,2.7,3.6,4.3,6.3,3.6c1.6-0.5,3-1.6,3.8-3.1c0.7-1.8,2.8-2.6,4.5-1.9c0.3,0.1,0.6,0.3,0.9,0.5c1.4,0.9,3.2,1.2,4.8,0.8
			c2.7-0.7,4.4-3.4,3.8-6.2c0-0.1,0-0.1,0-0.2C309.8,52.8,309.8,52.7,309.8,52.7"/>
		<path class="st0" d="M197,115.8c-0.5,0.1-1-0.3-1-0.8c0-0.1,0-0.1,0-0.2v-8.3c0-0.5,0.3-1,0.9-1c0.1,0,0.1,0,0.2,0h5.6v1.5h-5v2.8
			h4.5v1.5h-4.5v3h5.1v1.5H197z"/>
		<path class="st0" d="M205.5,105.6h2l2.3,4.1l2.3-4.1h1.9l-3.4,5.6v4.7h-1.7v-4.6L205.5,105.6z"/>
		<path class="st0" d="M218.1,115.8c-0.5,0.1-1-0.3-1-0.8c0-0.1,0-0.1,0-0.2v-8.3c0-0.5,0.3-1,0.9-1c0.1,0,0.1,0,0.2,0h5.6v1.5h-5
			v2.8h4.5v1.5h-4.5v3h5.1v1.5H218.1z"/>
		<path class="st0" d="M234.7,107h-2.9v8.8h-1.7V107h-2.9v-1.5h7.5V107z"/>
		<path class="st0" d="M242.1,105.6c1.6-0.1,3,1.1,3.1,2.6c0,0.1,0,0.2,0,0.3c0,1.2-0.7,2.4-1.9,2.8l2.2,4.4h-1.9l-2.1-4.1h-2.2v4.2
			h-1.7v-9.3c0-0.5,0.3-1,0.9-1c0.1,0,0.1,0,0.2,0L242.1,105.6z M239.4,107v3.2h2.4c0.9,0.1,1.6-0.6,1.7-1.5c0-0.1,0-0.1,0-0.2
			c0.1-0.8-0.6-1.5-1.4-1.6c-0.1,0-0.2,0-0.2,0L239.4,107z"/>
		<path class="st0" d="M254.8,113.8h-4.3l-0.7,2h-1.7l3.4-9.5c0.2-0.6,0.7-0.9,1.3-0.9c0.6-0.1,1.1,0.3,1.3,0.9l3.3,9.5h-1.8
			L254.8,113.8z M252.6,107.2l-1.7,5.1h3.5L252.6,107.2z"/>
		<path class="st0" d="M259.7,110.7c0-3.8,2.3-5.2,4.6-5.2c2.1-0.2,3.9,1.3,4.2,3.4l-1.7,0.4c-0.2-1.3-1.3-2.2-2.5-2.2
			c-1.4,0-2.8,0.9-2.8,3.8s1.4,3.8,2.9,3.8c1.3,0,2.4-0.9,2.5-2.2l1.6,0.4c-0.3,2.1-2.1,3.5-4.2,3.4
			C262,116,259.7,114.5,259.7,110.7z"/>
		<path class="st0" d="M273.7,112.9v2.9H272v-10.2h1.7v5.1l4.1-5.1h2.1l-2.7,3.3l2.9,7h-1.9l-2.4-5.5L273.7,112.9z"/>
		<path class="st0" d="M283.2,115.8v-10.2h1.7v10.2H283.2z"/>
		<path class="st0" d="M296.6,114.9c0,0.5-0.4,1-0.9,1c0,0-0.1,0-0.1,0c-0.5,0-0.9-0.2-1.2-0.7l-4.1-7v7.6h-1.6v-9.3
			c0-0.5,0.4-1,0.9-1c0,0,0.1,0,0.1,0c0.5,0,1,0.2,1.2,0.7l4.1,7v-7.5h1.6L296.6,114.9z"/>
		<path class="st0" d="M300.1,110.7c0-3.8,2.3-5.3,4.6-5.3c2-0.2,3.9,1.2,4.2,3.2l-1.7,0.4c-0.2-1.2-1.3-2.2-2.5-2.1
			c-1.4,0-2.8,0.9-2.8,3.8s1.6,3.8,3.1,3.8c0.8,0,1.6-0.2,2.3-0.6v-1.7h-2.1v-1.4h2.7c0.5,0,1,0.4,1.1,0.9c0,0,0,0.1,0,0.1v2.1
			c0,0.6-0.3,1.1-0.8,1.3c-1,0.5-2.1,0.8-3.2,0.8C302.4,115.9,300.1,114.5,300.1,110.7z"/>
	</g>
</g>
</svg>
