<?xml version="1.0" encoding="utf-8"?>
<!-- Generator: Adobe Illustrator 21.0.2, SVG Export Plug-In . SVG Version: 6.00 Build 0)  -->
<svg version="1.1" id="Layer_1" xmlns="http://www.w3.org/2000/svg" xmlns:xlink="http://www.w3.org/1999/xlink" x="0px" y="0px"
	 viewBox="0 0 500 165" style="enable-background:new 0 0 500 165;" xml:space="preserve">
<style type="text/css">
	.st0{fill:#FFFFFF;}
</style>
<title>Asset 26</title>
<g id="Layer_2">
	<g id="svg">
		<path class="st0" d="M206.1,77.7c0,0,0-0.1,0-0.1c0-2.6-2.1-4.7-4.7-4.7s-4.7,2.1-4.7,4.7l0,0v5.6c2.9,1.8,6,3.1,9.3,4V77.7z"/>
		<path class="st0" d="M196.8,100.9L196.8,100.9c-0.1,2.6,1.9,4.8,4.4,4.9c2.6,0.1,4.8-1.9,4.9-4.4c0-0.1,0-0.3,0-0.4
			c0,0,0-0.1,0-0.1v-5.1c-3.2-0.6-6.3-1.6-9.3-3V100.9z"/>
		<path class="st0" d="M212.7,96.3c-0.7,0-1.3,0-2-0.1v9.3l0,0c0.1,2.6,2.3,4.6,4.9,4.4c2.4-0.1,4.3-2,4.4-4.4c0,0,0-0.1,0-0.1v-9.6
			c-2.3,0.3-4.6,0.5-6.9,0.5H212.7z"/>
		<path class="st0" d="M213,88c2.3,0,4.7-0.2,7-0.6V68.3l0,0c0.1-2.6-1.9-4.8-4.4-4.9c-2.6-0.1-4.8,1.9-4.9,4.4c0,0.1,0,0.3,0,0.4
			c0,0.1,0,0.2,0,0.3v19.4c0.6,0,1.3,0.1,2,0.1L213,88z"/>
		<path class="st0" d="M234,54.3c-0.1-2.6-2.3-4.6-4.9-4.4c-2.4,0.1-4.3,2-4.4,4.4v31.9c3.3-1.3,6.4-2.9,9.3-4.8V54.3z"/>
		<path class="st0" d="M224.7,119.5L224.7,119.5c0.1,2.6,2.3,4.6,4.9,4.4c2.4-0.1,4.3-2,4.4-4.4c0,0,0-0.1,0-0.1V91
			c-2.9,1.7-6.1,3-9.3,3.9V119.5z"/>
		<path class="st0" d="M243,85.6c-1.6,1-3,1.9-4.4,2.7v21.9l0,0c-0.1,2.6,1.9,4.8,4.4,4.9c2.6,0.1,4.8-1.9,4.9-4.4
			c0-0.1,0-0.3,0-0.4c0,0,0-0.1,0-0.1V82.9c-1.5,0.7-2.9,1.5-4.3,2.3L243,85.6z"/>
		<path class="st0" d="M239.3,78.2c2.7-1.7,5.7-3.1,8.7-4.2V63.7c0.1-2.6-1.9-4.8-4.4-4.9c-2.6-0.1-4.8,1.9-4.9,4.4
			c0,0.1,0,0.3,0,0.4v15l0,0L239.3,78.2z"/>
		<path class="st0" d="M261.9,40.4c-0.1-2.6-2.3-4.6-4.9-4.4c-2.4,0.1-4.3,2-4.4,4.4v32c3-0.8,6.2-1.4,9.3-1.6V40.4z"/>
		<path class="st0" d="M252.6,124.2L252.6,124.2c-0.1,2.6,1.9,4.8,4.4,4.9s4.8-1.9,4.9-4.4c0-0.1,0-0.3,0-0.4c0,0,0-0.1,0-0.1V79.2
			c-3.2,0.3-6.3,0.9-9.3,1.9V124.2z"/>
		<path class="st0" d="M275.9,59c-0.1-2.6-2.3-4.6-4.9-4.4c-2.4,0.1-4.3,2-4.4,4.4v11.7c3.1,0.1,6.3,0.5,9.3,1.1V59z"/>
		<path class="st0" d="M266.6,105.6L266.6,105.6c0.1,2.6,2.3,4.6,4.9,4.4c2.4-0.1,4.3-2,4.4-4.4c0,0,0-0.1,0-0.1v-25
			c-3-0.8-6.2-1.3-9.3-1.4V105.6z"/>
		<path class="st0" d="M289.9,77.3v-9c0.1-2.6-1.9-4.8-4.4-4.9c-2.6-0.1-4.8,1.9-4.9,4.4c0,0.1,0,0.3,0,0.4v4.9
			c1.6,0.5,3.2,1.2,4.8,1.9C287,75.8,288.5,76.6,289.9,77.3z"/>
		<path class="st0" d="M280.5,82v14.2l0,0c-0.1,2.6,1.9,4.8,4.4,4.9c2.6,0.1,4.8-1.9,4.9-4.4c0-0.1,0-0.3,0-0.4c0,0,0-0.1,0-0.2
			v-9.4c-2.2-1.3-4.8-2.7-8-4.2C281.4,82.4,281,82.2,280.5,82z"/>
		<path class="st0" d="M294.4,94.1L294.4,94.1c0.1,2.6,2.3,4.6,4.9,4.4c2.4-0.1,4.3-2,4.4-4.4c0,0,0-0.1,0-0.1v-1.5
			c-3.2-0.6-6.4-1.7-9.3-3.2V94.1z"/>
		<path class="st0" d="M303.8,75.5c0.1-2.6-1.9-4.8-4.4-4.9c-2.6-0.1-4.8,1.9-4.9,4.4c0,0.1,0,0.3,0,0.4v4.3
			c3.3,1.9,5.9,3.3,9.3,4.2V75.5z"/>
		<path class="st0" d="M309.7,87c-0.9,0-1.7,0-2.6-0.1l-1.2-0.2c-0.8-0.1-1.5-0.2-2.1-0.4c-3.3-0.8-6.4-2.1-9.3-3.9l-1.2-0.7
			c-1.1-0.6-2.2-1.2-3.4-1.9c-1.6-0.9-3.4-1.8-5.5-2.8c-1.2-0.6-2.5-1.1-3.8-1.5c-4.5-1.6-9.2-2.5-14-2.6h-1.3c-1.1,0-2.3,0-3.4,0.1
			c-3.2,0.2-6.3,0.8-9.3,1.7c-4.3,1.2-8.3,3-12.1,5.3l-0.6,0.4l-1.2,0.7c-1.7,1-3.2,2-4.6,2.8c-2.9,1.8-6,3.4-9.3,4.5
			c-1.5,0.5-3.1,0.9-4.6,1.1c-2.3,0.3-4.7,0.5-7,0.5h-0.4c-0.6,0-1.3,0-1.9-0.1c-1.6-0.1-3.1-0.3-4.6-0.7c-3.3-0.8-6.4-2-9.3-3.7
			c-0.5-0.3-1-0.6-1.4-0.8l-0.3-0.2c-1.4-0.8-3.1-0.7-4.4,0.2l-0.6,0.8l1.4,1.1c0.6,0.4,1.2,0.8,1.8,1.2c1,0.7,2.2,1.3,3.5,2
			c2.9,1.5,6.1,2.6,9.3,3.2c1.5,0.3,3.1,0.5,4.7,0.6c0.6,0,1.3,0.1,1.9,0.1h0.5c2.3,0,4.6-0.2,6.9-0.5c1.6-0.2,3.1-0.6,4.6-1
			c3.3-1,6.4-2.4,9.3-4.1c1.4-0.8,3-1.7,4.6-2.7l3.2-2l0.6-0.4c1.8-1.1,3.6-2.1,5.5-2.9c1.5-0.7,3-1.2,4.6-1.7
			c3-0.9,6.1-1.5,9.3-1.8c1.1-0.1,2.3-0.1,3.4-0.1c0.4,0,0.8,0,1.3,0c4.8,0.1,9.5,1.1,14,2.8c0.8,0.3,1.5,0.6,2.2,0.9
			c2.8,1.3,5.1,2.5,7.1,3.6l1.6,0.9c1,0.6,2,1.2,3,1.7c2.9,1.6,6,2.8,9.3,3.4c0.6,0.1,1.1,0.2,1.8,0.3h0.4c2,0,3.7-1.5,4-3.4H309.7z
			"/>
	</g>
</g>
</svg>
